<svg xmlns="http://www.w3.org/2000/svg" viewBox="0 0 634.54 274.01"><defs><style>.cls-1{fill:#addbf5;}.cls-2{fill:#9cbde3;}.cls-3{fill:#a2cdf4;}.cls-4{fill:#89b2e0;}.cls-5{fill:#446596;}.cls-6{fill:#f6fbfd;}</style></defs><g id="Layer_2" data-name="Layer 2"><g id="Layer_1-2" data-name="Layer 1"><rect id="Rectangle_37" data-name="Rectangle 37" class="cls-1" x="92.06" y="97.19" width="76.2" height="80.05"/><rect id="Rectangle_37-2" data-name="Rectangle 37" class="cls-2" y="97.19" width="76.2" height="80.05"/><rect id="Rectangle_37-3" data-name="Rectangle 37" class="cls-3" x="92.06" width="76.2" height="80.05"/><rect id="Rectangle_37-4" data-name="Rectangle 37" class="cls-4" width="76.2" height="80.05"/><rect id="Rectangle_37-5" data-name="Rectangle 37" class="cls-5" y="190.49" width="76.2" height="81.92"/><path class="cls-6" d="M248.93,14.58H224.54V80.92H208.13V14.58H184.07V1.29h64.86Z"/><path class="cls-6" d="M321.06,80.92H304.65V46.79h-32V80.92H256.25V1.29h16.41V33.56h32V1.29h16.41Z"/><path class="cls-6" d="M382.42,46.41h-31.5V67.74h37V80.92H334.51V1.29h53.27V14.58H350.92v19h31.5Z"/><path class="cls-6" d="M200.4,148.86v28.06H184V97.29h31.07a35.9,35.9,0,0,1,15.77,3.29,24.17,24.17,0,0,1,10.48,9.32A26,26,0,0,1,245,123.65q0,11.72-8,18.46t-22.18,6.75Zm0-13.28h14.66q6.49,0,9.92-3.07t3.42-8.75A13.13,13.13,0,0,0,225,114.3c-2.29-2.4-5.47-3.64-9.51-3.72h-15Z"/><path class="cls-6" d="M292.43,160.51H263.66l-5.46,16.41H240.75l29.64-79.63h15.2l29.81,79.63H298Zm-24.34-13.29H288l-10-29.8Z"/><path class="cls-6" d="M338.26,163.74h34.83v13.18H321.85V97.29h16.41Z"/><path class="cls-6" d="M428.32,142.41h-31.5v21.33h37v13.18H380.42V97.29h53.26v13.29H396.82v19h31.5Z"/><path class="cls-6" d="M503.87,110.58H479.48v66.34H463.07V110.58H439V97.29h64.86Z"/><path class="cls-6" d="M573.84,110.58H549.45v66.34H533V110.58H509V97.29h64.86Z"/><path class="cls-6" d="M629.07,142.41h-31.5v21.33h37v13.18H581.16V97.29h53.27v13.29H597.57v19h31.5Z"/><path class="cls-6" d="M200.4,244.86v28.06H184V193.29h31.07a35.9,35.9,0,0,1,15.77,3.29,24.17,24.17,0,0,1,10.48,9.32A26,26,0,0,1,245,219.65q0,11.72-8,18.46t-22.18,6.75Zm0-13.28h14.66q6.49,0,9.92-3.07t3.42-8.75A13.13,13.13,0,0,0,225,210.3c-2.29-2.4-5.47-3.64-9.51-3.72h-15Z"/><path class="cls-6" d="M270,272.92H253.62V193.29H270Z"/><path class="cls-6" d="M346.08,246.4q-.93,12.84-9.49,20.23T314,274Q298.72,274,290,263.7t-8.78-28.3v-4.86a47.73,47.73,0,0,1,4.05-20.24,30.25,30.25,0,0,1,11.56-13.42,32.37,32.37,0,0,1,17.47-4.68q13.78,0,22.21,7.38t9.73,20.73h-16.4q-.62-7.71-4.3-11.18t-11.24-3.48q-8.19,0-12.27,5.88t-4.19,18.24v6q0,12.9,3.91,18.86t12.34,6c5.06,0,8.85-1.15,11.34-3.47s3.93-5.89,4.3-10.74Z"/><path class="cls-6" d="M380.67,241l-8.53,9.19v22.75h-16.4V193.29h16.4v36.1l7.22-9.9,20.29-26.2h20.18l-28.27,35.39,29.09,44.24H401.13Z"/><path class="cls-6" d="M474.49,238.41H443v21.33h37v13.18H426.58V193.29h53.27v13.29H443v19h31.5Z"/><path class="cls-6" d="M519,243.77H505.92v29.15h-16.4V193.29H519.1q14.11,0,21.77,6.29t7.65,17.78q0,8.14-3.52,13.59a24.16,24.16,0,0,1-10.69,8.66l17.22,32.54v.77H533.92Zm-13.07-13.29h13.24q6.18,0,9.57-3.14a11.25,11.25,0,0,0,3.39-8.67q0-5.64-3.2-8.86t-9.82-3.23H505.92Z"/></g></g></svg>