<svg xmlns="http://www.w3.org/2000/svg" viewBox="0 0 511.85 179.8"><defs><style>.cls-1{fill:#addbf5;}.cls-2{fill:#9cbde3;}.cls-3{fill:#446696;}.cls-4{isolation:isolate;}.cls-5{fill:#f6fbfd;}</style></defs><title>Asset 1</title><g id="Layer_2" data-name="Layer 2"><g id="Layer_1-2" data-name="Layer 1"><rect id="Rectangle_37" data-name="Rectangle 37" class="cls-1" x="83.74" y="4.32" width="67.51" height="78.76"/><rect id="Rectangle_37-2" data-name="Rectangle 37" class="cls-2" y="4.32" width="67.51" height="78.76"/><rect id="Rectangle_37-3" data-name="Rectangle 37" class="cls-3" y="99.32" width="67.51" height="78.76"/><g class="cls-4"><path class="cls-5" d="M183.72,55.34V83.09H167.49V4.33h30.72a35.6,35.6,0,0,1,15.61,3.24,24,24,0,0,1,10.36,9.23,25.66,25.66,0,0,1,3.62,13.6q0,11.58-7.92,18.26t-21.94,6.68Zm0-13.15h14.49q6.45,0,9.82-3t3.38-8.65a13,13,0,0,0-3.4-9.36c-2.28-2.38-5.41-3.61-9.42-3.68H183.72Z"/><path class="cls-5" d="M271.24,83.09a17.62,17.62,0,0,1-1.57-5.25,18.91,18.91,0,0,1-14.77,6.33q-8.6,0-14.25-5A16,16,0,0,1,235,66.64q0-9.3,6.89-14.28t19.94-5H269V44a9.62,9.62,0,0,0-2.08-6.49q-2.08-2.45-6.57-2.44a9.26,9.26,0,0,0-6.19,1.9,6.42,6.42,0,0,0-2.25,5.19H236.3a15.69,15.69,0,0,1,3.13-9.41,20.73,20.73,0,0,1,8.88-6.79,32.32,32.32,0,0,1,12.87-2.46q10.81,0,17.17,5.43t6.36,15.28V69.56q.06,8.34,2.33,12.61v.92ZM258.31,72.22a13.47,13.47,0,0,0,6.39-1.55A10,10,0,0,0,269,66.54V56.47h-5.84q-11.73,0-12.49,8.12l-.06.92a6.25,6.25,0,0,0,2.06,4.81A8,8,0,0,0,258.31,72.22Z"/><path class="cls-5" d="M313.22,83.09H297.53V0h15.69Z"/><path class="cls-5" d="M353,84.17q-12.87,0-21-7.9t-8.09-21V53.72A35.37,35.37,0,0,1,327.39,38,25,25,0,0,1,337,27.24a27.1,27.1,0,0,1,14.26-3.76q12,0,18.91,7.57t6.89,21.48v6.38H339.83a14.53,14.53,0,0,0,4.57,9.19,13.83,13.83,0,0,0,9.66,3.47q9,0,14.12-6.55l7.68,8.6a23.44,23.44,0,0,1-9.52,7.76A31.19,31.19,0,0,1,353,84.17Zm-1.78-48.09a9.77,9.77,0,0,0-7.55,3.15q-2.9,3.15-3.71,9h21.75V47c-.07-3.48-1-6.16-2.81-8.07S354.56,36.08,351.25,36.08Z"/><path class="cls-5" d="M404.69,10.17V24.56h10V36h-10V65.24c0,2.16.42,3.71,1.24,4.65s2.42,1.41,4.77,1.41a25,25,0,0,0,4.59-.38V82.76a32.07,32.07,0,0,1-9.46,1.41q-16.45,0-16.77-16.61V36h-8.55V24.56h8.55V10.17Z"/><path class="cls-5" d="M442.12,10.17V24.56h10V36h-10V65.24c0,2.16.42,3.71,1.25,4.65s2.41,1.41,4.76,1.41a25.21,25.21,0,0,0,4.6-.38V82.76a32.13,32.13,0,0,1-9.47,1.41q-16.44,0-16.77-16.61V36h-8.55V24.56h8.55V10.17Z"/><path class="cls-5" d="M487.78,84.17q-12.87,0-21-7.9t-8.09-21V53.72A35.37,35.37,0,0,1,462.14,38a25,25,0,0,1,9.65-10.71,27.1,27.1,0,0,1,14.26-3.76q12,0,18.91,7.57t6.89,21.48v6.38H474.58a14.48,14.48,0,0,0,4.57,9.19,13.83,13.83,0,0,0,9.66,3.47q9,0,14.12-6.55l7.68,8.6a23.44,23.44,0,0,1-9.52,7.76A31.23,31.23,0,0,1,487.78,84.17ZM486,36.08a9.76,9.76,0,0,0-7.54,3.15q-2.9,3.15-3.71,9h21.75V47c-.07-3.48-1-6.16-2.81-8.07S489.31,36.08,486,36.08Z"/></g><g class="cls-4"><path class="cls-5" d="M183.72,151v27.75H167.49V100h30.72a35.46,35.46,0,0,1,15.61,3.25,23.94,23.94,0,0,1,10.36,9.22A25.7,25.7,0,0,1,227.8,126q0,11.56-7.92,18.25T197.94,151Zm0-13.14h14.49q6.45,0,9.82-3t3.38-8.66a13,13,0,0,0-3.4-9.35c-2.28-2.39-5.41-3.61-9.42-3.68H183.72Z"/><path class="cls-5" d="M237.81,105.05a7.65,7.65,0,0,1,2.36-5.79,10.14,10.14,0,0,1,12.79,0,8.26,8.26,0,0,1,0,11.63,10,10,0,0,1-12.71,0A7.66,7.66,0,0,1,237.81,105.05Zm16.61,73.67H238.73V120.19h15.69Z"/><path class="cls-5" d="M291.63,167.2a10.26,10.26,0,0,0,7-2.38,8.35,8.35,0,0,0,2.81-6.33h14.66a20.06,20.06,0,0,1-3.25,10.9,21.38,21.38,0,0,1-8.73,7.68,27.36,27.36,0,0,1-12.25,2.73q-12.56,0-19.8-8t-7.25-22.05v-1q0-13.51,7.19-21.58t19.75-8.06q11,0,17.6,6.25T316.14,142H301.48a10.74,10.74,0,0,0-2.81-7.42,9.41,9.41,0,0,0-7.14-2.86q-5.47,0-8.25,4t-2.79,12.92v1.62q0,9.06,2.76,13T291.63,167.2Z"/><path class="cls-5" d="M346.32,155.25l-5.62,5.62v17.85H325.06V95.63H340.7v46l3-3.9,15-17.58h18.77l-21.15,24.4,23,34.13h-18Z"/><path class="cls-5" d="M410.1,179.8q-12.87,0-21-7.89t-8.09-21v-1.51a35.4,35.4,0,0,1,3.41-15.77,25.06,25.06,0,0,1,9.65-10.71,27.1,27.1,0,0,1,14.26-3.76q12,0,18.91,7.57t6.89,21.48v6.38H396.9a14.56,14.56,0,0,0,4.57,9.2,13.82,13.82,0,0,0,9.66,3.46q9,0,14.12-6.54l7.68,8.6a23.61,23.61,0,0,1-9.52,7.76A31.22,31.22,0,0,1,410.1,179.8Zm-1.78-48.09a9.78,9.78,0,0,0-7.55,3.16q-2.89,3.15-3.71,9h21.75v-1.25q-.1-5.22-2.81-8.07C414.19,132.67,411.63,131.71,408.32,131.71Z"/><path class="cls-5" d="M475.93,134.85a42.15,42.15,0,0,0-5.62-.43q-8.88,0-11.63,6v38.3H443V120.19h14.77l.43,7q4.71-8.06,13-8.06a16.71,16.71,0,0,1,4.87.7Z"/></g></g></g></svg>