<svg version="1" xmlns="http://www.w3.org/2000/svg" width="364" height="364" viewBox="0 0 273.000000 273.000000"><path d="M51.9 1.7c-.1 2.3-.1 76.5 0 77.8.1 1.1 74 1.3 75.7.3.7-.5 1.1-73.3.5-79.1C128 .3 110.9 0 90 0 54.5 0 52 .1 51.9 1.7zM143.9.2c-.5 1.5-.2 78.3.3 79.1.8 1.3 74.7 1.6 75.6.3.3-.5.6-18.6.6-40.3l.1-39.3h-38.2c-21.1 0-38.3.1-38.4.2zM51.9 98.2c-.1 1.7-.1 74.7 0 77.3.1 2 .8 2 37.6 2 27.3 0 37.8-.3 38.3-1.2.5-.8.8-74.1.3-78.6-.1-.4-17.2-.7-38.1-.7-29.7 0-38 .3-38.1 1.2zM143.6 136.5c0 21.7.4 39.8.8 40.3.4.4 17.6.7 38.2.7 36.7 0 37.4 0 37.5-2 .1-2.5.1-75.6 0-77.3-.1-.9-8.5-1.2-38.3-1.2h-38.3l.1 39.5zM52.3 191.4c-.9 1.3-1 77.8-.2 79.6.6 1.3 5.7 1.5 38 1.5 34.2 0 37.2-.1 37.8-1.7.9-2.5.5-78.7-.3-79.6-1.1-1.1-74.7-.9-75.3.2z"/></svg>